<svg width="42" height="60" viewBox="0 0 42 60" fill="none" xmlns="http://www.w3.org/2000/svg">
<path d="M0.5 40.9062V36.3125L11 43C11.0625 46.625 12.7188 46.9062 15.9688 48.4062C16.8438 48.7812 17.5938 48.9688 18.2188 48.9688V59.4688C14.7812 59.4688 11.3125 58.1562 7.8125 55.5312C3 51.7812 0.5625 46.9062 0.5 40.9062ZM23 59.4688V48.9688C24.5 48.9688 26.1562 48.2812 27.9688 46.9062C29.9688 45.2812 32.125 40.375 32.1875 38L40 6L41.4688 0.5V40.9062C41.4688 47.8438 38.375 53.0938 32.1875 56.6562C28.9375 58.5312 25.875 59.4688 23 59.4688Z" fill="black"/>
</svg>
